<?xml version="1.0" encoding="UTF-8" standalone="no"?>
<svg width="24px" height="24px" viewBox="0 0 24 24" version="1.1" xmlns="http://www.w3.org/2000/svg" xmlns:xlink="http://www.w3.org/1999/xlink" xmlns:sketch="http://www.bohemiancoding.com/sketch/ns">
    <!-- Generator: Sketch 3.3.2 (12043) - http://www.bohemiancoding.com/sketch -->
    <title>Completed</title>
    <desc>Created with Sketch.</desc>
    <defs></defs>
    <g id="Page-1" stroke="none" stroke-width="1" fill="none" fill-rule="evenodd" sketch:type="MSPage">
        <g id="Completed" sketch:type="MSArtboardGroup" fill="#7ED321">
            <path d="M12,24 C18.627417,24 24,18.627417 24,12 C24,5.372583 18.627417,0 12,0 C5.372583,0 0,5.372583 0,12 C0,18.627417 5.372583,24 12,24 Z M20.8903102,7.04699056 L18.2652555,4.42193587 C18.1190025,4.27568283 17.8812475,4.27568283 17.7349945,4.42193587 L8.62455468,13.5323757 L6.26500552,11.1720765 C6.11875247,11.0258235 5.88099752,11.0258235 5.73474447,11.1720765 L3.10968979,13.7971312 C2.96343674,13.9433842 2.96343674,14.1811392 3.10968979,14.3273922 L8.35979916,19.5775016 C8.43330069,19.6510031 8.52930269,19.6877539 8.62455468,19.6877539 C8.72055668,19.6877539 8.81655868,19.6510031 8.89006021,19.5775016 L20.8903102,7.57725161 C21.0365633,7.43099856 21.0365633,7.19324361 20.8903102,7.04699056 Z" id="Oval-1" sketch:type="MSShapeGroup"></path>
        </g>
    </g>
</svg>