<?xml version="1.0" standalone="no"?>
<!DOCTYPE svg PUBLIC "-//W3C//DTD SVG 20010904//EN"
 "http://www.w3.org/TR/2001/REC-SVG-20010904/DTD/svg10.dtd">
<svg version="1.0" xmlns="http://www.w3.org/2000/svg"
 width="640.000000pt" height="960.000000pt" viewBox="0 0 640.000000 960.000000"
 preserveAspectRatio="xMidYMid meet">
<metadata>
Created by potrace 1.11, written by Peter Selinger 2001-2013
</metadata>
<g transform="translate(0.000000,960.000000) scale(0.100000,-0.100000)"
fill="#000000" stroke="none">
<path d="M3357 7141 c-227 -215 -282 -272 -374 -394 -76 -101 -143 -175 -227
-252 -71 -65 -164 -166 -231 -250 -62 -77 -159 -196 -215 -265 -207 -251 -278
-361 -463 -715 -138 -266 -216 -406 -268 -488 -46 -71 -45 -83 19 -252 59
-157 61 -214 13 -369 -29 -93 -33 -118 -29 -178 8 -100 28 -121 162 -171 5 -1
-5 -46 -22 -97 -50 -156 -51 -147 26 -223 76 -75 78 -76 285 -102 125 -16 128
-16 189 4 73 25 110 26 238 6 180 -27 367 -38 434 -25 114 22 417 192 504 282
32 34 32 35 19 79 -8 24 -26 64 -42 89 l-28 45 24 45 c19 34 37 51 77 70 44
21 55 32 73 74 11 27 26 78 31 113 13 75 6 87 -78 135 -43 23 -56 38 -74 81
-29 66 -31 170 -6 245 43 128 175 276 385 432 85 63 126 103 192 185 63 78
122 136 236 231 177 146 377 348 452 454 70 99 136 231 163 327 29 102 31 277
4 373 -44 160 -111 246 -342 438 -265 221 -252 216 -830 319 -30 5 -46 -8
-297 -246z m463 125 c232 -42 505 -187 700 -373 200 -190 292 -388 262 -565
-24 -140 -78 -217 -243 -349 -47 -38 -98 -84 -112 -103 -63 -82 -252 -304
-323 -379 -107 -113 -183 -180 -368 -321 -178 -135 -305 -251 -373 -339 l-46
-59 -30 30 -30 31 28 38 c59 78 266 281 460 451 309 271 386 345 496 469 71
79 139 143 221 205 131 100 166 137 206 218 38 78 38 191 -1 307 -36 107 -63
167 -83 184 -14 11 -18 10 -34 -11 -17 -23 -19 -23 -44 -7 -14 9 -28 17 -31
17 -12 0 -67 -134 -86 -208 -10 -41 -19 -95 -19 -119 0 -23 -3 -43 -7 -43 -5
0 -20 14 -36 32 l-27 33 -26 -29 c-14 -15 -28 -41 -31 -57 -8 -41 -23 -46 -45
-16 -29 39 -38 33 -38 -23 0 -27 -4 -50 -8 -50 -5 0 -19 11 -32 25 -13 14 -27
25 -32 25 -4 0 -22 -28 -39 -62 -17 -35 -33 -65 -35 -67 -1 -2 -16 6 -32 18
-39 27 -45 27 -75 -9 -39 -46 -67 -133 -79 -247 -7 -56 -15 -103 -18 -103 -3
0 -13 14 -22 30 -21 37 -35 38 -48 4 -6 -14 -15 -22 -20 -19 -15 9 -41 -15
-57 -53 -14 -34 -45 -52 -92 -52 -32 0 -45 -13 -55 -53 -6 -25 -10 -28 -35
-22 -34 7 -43 -4 -96 -128 -21 -48 -54 -106 -74 -129 l-37 -41 12 -76 c15 -90
17 -131 6 -131 -5 0 -22 20 -40 45 -40 57 -63 61 -51 8 4 -21 17 -64 29 -95
11 -32 20 -66 20 -77 0 -22 -55 -91 -73 -91 -6 0 -87 48 -181 107 -94 59 -218
131 -275 160 -194 97 -417 153 -613 153 -50 0 -88 4 -88 10 0 22 53 127 94
184 24 33 94 115 156 181 62 66 170 197 240 290 105 139 158 199 294 328 112
107 183 183 217 235 193 287 482 599 616 666 79 39 84 40 183 22z m-1515
-2027 c321 -65 649 -229 841 -423 90 -91 145 -178 160 -252 l6 -30 -104 -24
c-129 -30 -267 -32 -432 -7 -80 12 -158 18 -233 15 -101 -3 -115 -5 -135 -26
l-23 -22 23 -44 c26 -49 60 -69 151 -87 67 -13 198 -7 246 11 48 18 50 -4 3
-43 -85 -69 -190 -109 -333 -127 -43 -5 -83 -14 -89 -20 -14 -14 36 -30 92
-30 142 0 507 138 645 244 l47 36 38 -19 c20 -10 65 -40 100 -65 35 -26 79
-54 98 -63 34 -17 51 -44 39 -64 -5 -7 -52 -9 -154 -4 -209 9 -396 -6 -491
-40 -159 -57 -218 -106 -328 -266 -39 -57 -87 -119 -106 -138 -34 -33 -37 -34
-54 -18 -17 16 -22 16 -55 2 -24 -10 -70 -15 -138 -15 l-102 0 -68 65 c-71 66
-160 125 -192 125 -24 0 -47 57 -47 118 0 27 14 96 32 153 45 149 43 205 -11
337 -23 57 -45 128 -48 157 -5 51 -4 57 27 91 38 43 56 83 99 219 17 55 39
115 49 132 10 19 54 59 102 93 l85 61 80 -6 c44 -3 125 -15 180 -26z m358
-1302 c-6 -30 -5 -31 13 -17 10 8 29 23 41 34 13 11 26 17 29 13 10 -10 -60
-149 -96 -190 -38 -43 -50 -46 -50 -12 0 32 -4 31 -50 -5 -45 -36 -60 -38 -60
-7 0 65 136 251 166 226 9 -7 11 -22 7 -42z m-723 -393 c130 -26 203 -32 301
-23 107 11 154 6 163 -18 4 -9 5 -17 4 -18 -2 -2 -75 -8 -164 -15 -232 -18
-380 7 -414 69 -15 28 -13 32 13 26 12 -3 56 -12 97 -21z"/>
</g>
</svg>
