<?xml version="1.0" encoding="UTF-8" standalone="no"?>
<svg width="500px" height="500px" viewBox="0 0 500 500" version="1.1" xmlns="http://www.w3.org/2000/svg" xmlns:xlink="http://www.w3.org/1999/xlink" xmlns:sketch="http://www.bohemiancoding.com/sketch/ns">
    <!-- Generator: Sketch 3.3.3 (12072) - http://www.bohemiancoding.com/sketch -->
    <title>PiggyBox_outline</title>
    <desc>Created with Sketch.</desc>
    <defs></defs>
    <g id="Rev02" stroke="none" stroke-width="1" fill="none" fill-rule="evenodd" sketch:type="MSPage">
        <g id="PiggyBox_outline" sketch:type="MSArtboardGroup">
            <g id="Background" sketch:type="MSLayerGroup" transform="translate(14.500000, 6.000000)" fill="#1DC3FF">
                <path d="M61.2018756,318.922149 C66.6156968,352.613258 82.4185924,364.677287 82.4185924,364.677287 C83.1956774,365.327239 157.209448,409.116378 163.990121,417.032318 C168.901198,421.970748 169.162893,422.078373 174.488738,431.621596 C179.287306,444.969008 179.742713,457.779403 180.926688,459.741012 C182.8618,471.346267 191.566023,477.593398 196.721965,481.278107 C212.509947,489.282821 237.27228,487.685745 238.746153,487.259627 C269.094954,480.827407 272.233016,462.646712 272.233016,461.266524 C273.481444,441.182937 277.275405,429.129409 278.805586,426.694137 C283.161284,413.933822 286.571767,415.306558 288.324797,414.079452 C290.165853,412.797739 365.782317,383.628127 365.782317,383.628127 C365.782317,383.628127 404.66577,384.438308 406.310027,384.438308 C442.402007,377.324141 464.833129,327.155562 466.498076,320.632522 C478.84323,282.225356 456.409176,269.232886 456.409176,269.232886 C456.409176,269.232886 437.099736,258.747452 434.554442,256.47412 C432.971739,235.725112 421.493254,161.102153 416.434433,147.616872 C412.74499,137.781936 408.532591,131.893508 408.53258,127.480886 C416.434447,56.644163 471.079743,34.7347441 460.584136,11.653524 C452.320799,-6.51863773 399.064849,3.21413175 392.475572,4.37965294 C361.471017,9.86378572 331.464991,48.5251355 323.230136,53.3872217 C303.702986,64.9165904 287.312926,55.9006137 287.312926,55.9006137" id="Path-178" sketch:type="MSShapeGroup"></path>
                <path d="M232.621525,43.504454 C197.758922,22.214207 -111.488535,60.8206316 43.469803,338.552547" id="Path-180" sketch:type="MSShapeGroup"></path>
                <path d="M141.98539,120.17035 C141.98539,120.17035 151.478767,118.2794 158.823945,110.960954 C158.823945,110.960954 191.777256,51.9943258 233.603804,43.7349131 C265.009416,33.9405445 284.94109,43.0732224 285.53533,45.5796538 C289.066236,60.4725895 284.537314,74.115251 285.535329,84.0997125 C286.679244,95.5438101 288.307932,101.60548 288.30824,106.445435 C288.309187,121.353153 283.194292,133.874029 283.194292,133.874029" id="Path-182" sketch:type="MSShapeGroup"></path>
                <path d="M30.382802,296.922225 C30.382802,296.922225 38.262003,305.955493 40.8728247,316.190431 C41.0355844,317.105108 48.1650281,393.171931 68.7282171,401.799169 C73.0746774,403.622717 85.7639039,413.143727 130.031453,393.731529" id="Path-184" sketch:type="MSShapeGroup"></path>
                <path d="M291.994673,413.38801 C291.994673,413.38801 309.640561,426.726618 337.518455,424.503944 C337.518455,424.503944 350.039127,422.167136 361.159561,412.24224 C366.58222,407.402561 371.16017,382.591353 371.16017,382.591353" id="Path-185" sketch:type="MSShapeGroup"></path>
                <rect id="Rectangle-1" sketch:type="MSShapeGroup" x="52.5" y="111" width="183" height="221"></rect>
            </g>
            <g id="Outline" sketch:type="MSLayerGroup" transform="translate(14.500000, 6.000000)">
                <path d="M61.2018756,318.922149 C66.6156968,352.613258 82.4185924,364.677287 82.4185924,364.677287 C83.1956774,365.327239 157.209448,409.116378 163.990121,417.032318 C168.901198,421.970748 169.162893,422.078373 174.488738,431.621596 C179.287306,444.969008 179.742713,457.779403 180.926688,459.741012 C182.8618,471.346267 191.566023,477.593398 196.721965,481.278107 C212.509947,489.282821 237.27228,487.685745 238.746153,487.259627 C269.094954,480.827407 272.233016,462.646712 272.233016,461.266524 C273.481444,441.182937 277.275405,429.129409 278.805586,426.694137 C283.161284,413.933822 286.571767,415.306558 288.324797,414.079452 C290.165853,412.797739 365.782317,383.628127 365.782317,383.628127 C365.782317,383.628127 404.66577,384.438308 406.310027,384.438308 C442.402007,377.324141 464.833129,327.155562 466.498076,320.632522 C478.84323,282.225356 456.409176,269.232886 456.409176,269.232886 C456.409176,269.232886 437.099736,258.747452 434.554442,256.47412 C432.971739,235.725112 421.493254,161.102153 416.434433,147.616872 C412.74499,137.781936 408.532591,131.893508 408.53258,127.480886 C416.434447,56.644163 471.079743,34.7347441 460.584136,11.653524 C452.320799,-6.51863773 399.064849,3.21413175 392.475572,4.37965294 C361.471017,9.86378572 331.464991,48.5251355 323.230136,53.3872217 C303.702986,64.9165904 287.312926,55.9006137 287.312926,55.9006137" id="Path-178" stroke="#000000" stroke-width="8" sketch:type="MSShapeGroup"></path>
                <ellipse id="Oval-1" fill="#000000" sketch:type="MSShapeGroup" cx="360.5" cy="220" rx="7.5" ry="11"></ellipse>
                <ellipse id="Oval-2" fill="#000000" sketch:type="MSShapeGroup" cx="405.5" cy="205" rx="6.5" ry="9"></ellipse>
                <path d="M397.825031,118.489869 C397.825031,118.489869 339.198175,51.21584 424.48108,15.5600592" id="Path-179" stroke="#000000" stroke-width="8" sketch:type="MSShapeGroup"></path>
                <path d="M232.621525,43.504454 C197.758922,22.214207 -111.488535,60.8206316 43.469803,338.552547" id="Path-180" stroke="#000000" stroke-width="8" sketch:type="MSShapeGroup"></path>
                <path d="M267.49977,155.017449 C261.486424,160.914102 233.72713,179.877148 221.341408,174.458737 C208.955685,169.040326 195.565358,126.873611 258.128533,58.3727844" id="Path-181" stroke="#000000" stroke-width="8" sketch:type="MSShapeGroup"></path>
                <path d="M141.98539,120.17035 C141.98539,120.17035 151.478767,118.2794 158.823945,110.960954 C158.823945,110.960954 191.777256,51.9943258 233.603804,43.7349131 C265.009416,33.9405445 284.94109,43.0732224 285.53533,45.5796538 C289.066236,60.4725895 284.537314,74.115251 285.535329,84.0997125 C286.679244,95.5438101 288.307932,101.60548 288.30824,106.445435 C288.309187,121.353153 283.194292,133.874029 283.194292,133.874029" id="Path-182" stroke="#000000" stroke-width="8" sketch:type="MSShapeGroup"></path>
                <path d="M30.382802,296.922225 C30.382802,296.922225 38.262003,305.955493 40.8728247,316.190431 C41.0355844,317.105108 48.1650281,393.171931 68.7282171,401.799169 C73.0746774,403.622717 85.7639039,413.143727 130.031453,393.731529" id="Path-184" stroke="#000000" stroke-width="8" sketch:type="MSShapeGroup"></path>
                <path d="M291.994673,413.38801 C291.994673,413.38801 309.640561,426.726618 337.518455,424.503944 C337.518455,424.503944 350.039127,422.167136 361.159561,412.24224 C366.58222,407.402561 371.16017,382.591353 371.16017,382.591353" id="Path-185" stroke="#000000" stroke-width="8" sketch:type="MSShapeGroup"></path>
                <ellipse id="Oval-3" fill="#000000" sketch:type="MSShapeGroup" transform="translate(419.500000, 331.500000) rotate(16.000000) translate(-419.500000, -331.500000) " cx="419.5" cy="331.5" rx="7.5" ry="18.5"></ellipse>
                <ellipse id="Oval-4" fill="#000000" sketch:type="MSShapeGroup" transform="translate(446.404377, 315.891969) rotate(16.000000) translate(-446.404377, -315.891969) " cx="446.404377" cy="315.891969" rx="7.07389043" ry="16.7049817"></ellipse>
                <path d="M149.689431,51.6932847 C149.689431,51.6932847 149.427269,50.3313105 149.427269,50.3313105 L175.732862,45.5185959 L211.407287,51.0031146 C211.407287,51.0031146 201.275887,60.6206172 200.690973,60.429037 C185.309655,55.3911007 158.019401,50.5920107 149.689431,51.6932847 Z" id="Path-179" fill="#000000" sketch:type="MSShapeGroup"></path>
                <path d="M427.087616,257.537422 C427.087616,257.537422 405.092601,257.537422 388.621711,273.408996" id="Path-182" stroke="#000000" stroke-width="8" sketch:type="MSShapeGroup"></path>
            </g>
        </g>
    </g>
</svg>